<svg width="80" height="80" viewBox="0 0 80 80" fill="none" xmlns="http://www.w3.org/2000/svg">
<g id="Communication Icon">
<path id="Vector" d="M0 20C0 14.4772 4.47715 10 10 10H70C75.5229 10 80 14.4772 80 20V60C80 65.5228 75.5229 70 70 70H10C4.47716 70 0 65.5228 0 60V20ZM10 15C7.23858 15 5 17.2386 5 20V21.0845L40 42.0845L75 21.0845V20C75 17.2386 72.7614 15 70 15H10ZM75 26.9155L51.2109 41.1889L75 55.5677V26.9155ZM74.8277 61.306L46.3601 44.0994L40 47.9155L33.6399 44.0994L5.17228 61.306C5.74656 63.4341 7.69041 65 10 65H70C72.3096 65 74.2534 63.4341 74.8277 61.306ZM5 55.5677L28.7891 41.1889L5 26.9155V55.5677Z" fill="#EDF0F5"/>
</g>
</svg>
